<svg xmlns="http://www.w3.org/2000/svg" width="230" height="230" viewBox="0 0 230 230">
  <g id="Group_4" data-name="Group 4" transform="translate(803 4185)">
    <circle id="Ellipse_10" data-name="Ellipse 10" cx="115" cy="115" r="115" transform="translate(-803 -4185)" fill="#fff"/>
    <g id="Group_2" data-name="Group 2" transform="translate(86 -43.397)">
      <g id="Rectangle_7" data-name="Rectangle 7" transform="translate(-852 -4088.603)" fill="#fff" stroke="#707070" stroke-linecap="round" stroke-width="8">
        <rect width="157" height="139" rx="20" stroke="none"/>
        <rect x="4" y="4" width="149" height="131" rx="16" fill="none"/>
      </g>
    </g>
    <g id="Rectangle_10" data-name="Rectangle 10" transform="translate(-740 -4106)" fill="#fff" stroke="#707070" stroke-width="8">
      <rect width="37" height="36" rx="5" stroke="none"/>
      <rect x="4" y="4" width="29" height="28" rx="1" fill="none"/>
    </g>
    <g id="Rectangle_14" data-name="Rectangle 14" transform="translate(-727 -4160)" fill="#fff" stroke="#707070" stroke-width="8">
      <rect width="24" height="46" rx="5" stroke="none"/>
      <rect x="4" y="4" width="16" height="38" rx="1" fill="none"/>
    </g>
    <g id="Rectangle_15" data-name="Rectangle 15" transform="translate(-670 -4160)" fill="#fff" stroke="#707070" stroke-width="8">
      <rect width="24" height="46" rx="5" stroke="none"/>
      <rect x="4" y="4" width="16" height="38" rx="1" fill="none"/>
    </g>
    <g id="Rectangle_13" data-name="Rectangle 13" transform="translate(-740 -4052)" fill="#fff" stroke="#707070" stroke-width="8">
      <rect width="37" height="36" rx="5" stroke="none"/>
      <rect x="4" y="4" width="29" height="28" rx="1" fill="none"/>
    </g>
    <g id="Rectangle_11" data-name="Rectangle 11" transform="translate(-672 -4106)" fill="#fff" stroke="#707070" stroke-width="8">
      <rect width="37" height="36" rx="5" stroke="none"/>
      <rect x="4" y="4" width="29" height="28" rx="1" fill="none"/>
    </g>
    <g id="Rectangle_12" data-name="Rectangle 12" transform="translate(-672 -4052)" fill="#fff" stroke="#707070" stroke-width="8">
      <rect width="37" height="36" rx="5" stroke="none"/>
      <rect x="4" y="4" width="29" height="28" rx="1" fill="none"/>
    </g>
  </g>
</svg>
