<svg xmlns="http://www.w3.org/2000/svg" width="243.606" height="93" viewBox="0 0 243.606 93">
  <g id="Group_7" data-name="Group 7" transform="translate(-779 -260)">
    <g id="Rectangle_17" data-name="Rectangle 17" transform="translate(779 260)" fill="#fff" stroke="#707070" stroke-width="4">
      <rect width="91" height="93" rx="5" stroke="none"/>
      <rect x="2" y="2" width="87" height="89" rx="3" fill="none"/>
    </g>
    <path id="Path_18" data-name="Path 18" d="M914,1278h88" transform="translate(-135 -996)" fill="none" stroke="#707070" stroke-width="4"/>
    <text id="_4" data-name="4" transform="translate(790 318)" fill="#707070" font-size="36" font-family="SegoeUI-Bold, Segoe UI" font-weight="700"><tspan x="0" y="0">4</tspan></text>
    <text id="_4-2" data-name="4" transform="translate(840 318)" fill="#707070" font-size="36" font-family="SegoeUI-Bold, Segoe UI" font-weight="700"><tspan x="0" y="0">4</tspan></text>
    <text id="_0" data-name="0" transform="translate(815 341)" fill="#707070" font-size="36" font-family="SegoeUI-Bold, Segoe UI" font-weight="700"><tspan x="0" y="0">0</tspan></text>
    <circle id="Ellipse_12" data-name="Ellipse 12" cx="3" cy="3" r="3" transform="translate(789 269)" fill="#fcb934"/>
    <circle id="Ellipse_13" data-name="Ellipse 13" cx="3" cy="3" r="3" transform="translate(797 269)" fill="#919191"/>
    <circle id="Ellipse_14" data-name="Ellipse 14" cx="3" cy="3" r="3" transform="translate(806 269)" fill="#5046bb"/>
    <path id="Page_not_found" data-name="Page not found" d="M3.551,15.5v5.59H1.663V6.812l5.281,0q2.349,0,3.681,1.2t1.331,3.166q0,2.078-1.3,3.2T6.924,15.5Zm0-1.54H6.944q1.514,0,2.32-.712t.806-2.057q0-1.277-.806-2.043t-2.212-.8h-3.5Zm16.976,7.121q-.157-.313-.255-1.117-1.266,1.313-3.023,1.314-1.571,0-2.578-.886t-1.007-2.249q0-1.656,1.262-2.573t3.549-.917h1.767v-.833q0-.95-.569-1.514T18,11.747q-.972,0-1.63.49t-.658,1.186H13.881q0-.794.565-1.534t1.532-1.171q.967-.431,2.126-.431,1.835,0,2.876.916t1.079,2.522V18.6q0,1.459.373,2.321v.157ZM17.514,19.7q.854,0,1.62-.442t1.109-1.147V15.94H18.82q-3.338,0-3.338,1.951,0,.853.57,1.332T17.514,19.7Zm6.957-4.009q0-2.478,1.147-3.942t3.039-1.463q1.941,0,3.028,1.371l.088-1.175h1.656V20.822q0,2.055-1.22,3.241T28.933,25.25q-1.147,0-2.245-.488t-1.677-1.34l.941-1.088q1.167,1.439,2.853,1.438,1.323,0,2.063-.745t.74-2.1v-.91q-1.088,1.254-2.97,1.255-1.863,0-3.015-1.5T24.471,15.695ZM26.3,15.9q0,1.792.735,2.815t2.059,1.022q1.715,0,2.519-1.558V13.344q-.833-1.517-2.5-1.518-1.323,0-2.069,1.028T26.3,15.9Zm14.264,5.368q-2.154,0-3.5-1.412T35.7,16.074v-.333q0-1.576.6-2.814t1.684-1.937q1.082-.7,2.345-.7,2.065,0,3.21,1.36t1.145,3.893V16.3l-7.174,0q.039,1.566.915,2.529t2.227.963q.959,0,1.625-.392t1.164-1.037l1.105.86Q43.221,21.267,40.559,21.268Zm-.225-9.49q-1.1,0-1.84.8t-.92,2.236h5.305v-.137q-.078-1.379-.744-2.137T40.334,11.778Zm13.114-1.289.059,1.329q1.212-1.525,3.165-1.524,3.349,0,3.379,3.782v6.986H58.245v-7q-.01-1.143-.522-1.691t-1.6-.547q-.879,0-1.543.469t-1.036,1.232v7.537H51.739V10.489ZM62.3,15.678q0-1.553.61-2.794t1.7-1.914q1.088-.674,2.483-.674,2.155,0,3.486,1.495T71.9,15.764v.127q0,1.543-.59,2.768t-1.687,1.91q-1.1.684-2.521.685-2.146,0-3.478-1.493T62.3,15.805Zm1.815.215q0,1.758.815,2.823t2.18,1.064q1.375,0,2.185-1.08t.809-3.022q0-1.738-.824-2.817t-2.189-1.079q-1.336,0-2.156,1.065T64.111,15.893Zm12.5-7.957v2.557h1.968v1.4H76.61v6.557q0,.635.263.953t.9.317q.312,0,.857-.117v1.455q-.711.194-1.383.195-1.208,0-1.822-.731t-.614-2.079v-6.55h-1.92v-1.4h1.92V7.935ZM86.5,21.049V11.89H84.837V10.494H86.5V9.412q0-1.7.9-2.623t2.558-.925q.622,0,1.235.165l-.1,1.454q-.457-.088-.972-.088-.875,0-1.352.513T88.3,9.38V10.5h2.247V11.89H88.3v9.158Zm5.553-5.375q0-1.55.608-2.789t1.691-1.911q1.084-.672,2.473-.672,2.147,0,3.473,1.492t1.325,3.966v.127q0,1.54-.587,2.763t-1.68,1.906q-1.093.683-2.511.684-2.138,0-3.464-1.49T92.054,15.8Zm1.808.214q0,1.755.812,2.817t2.172,1.062q1.37,0,2.176-1.078t.806-3.016q0-1.735-.821-2.812t-2.181-1.077q-1.331,0-2.147,1.062T93.862,15.887Zm16.5,4.107q-1.047,1.237-3.075,1.238-1.679,0-2.557-.978t-.888-2.9V10.5h1.8v6.809q0,2.4,1.941,2.4,2.057,0,2.735-1.54V10.5H112.1V21.035H110.4Zm6.166-9.494.058,1.324q1.2-1.518,3.139-1.518,3.322,0,3.351,3.766v6.957H121.28V14.062q-.01-1.139-.518-1.684t-1.584-.545q-.872,0-1.531.467t-1.027,1.227v7.505h-1.793V10.5Zm8.813,5.177q0-2.423,1.142-3.9t2.99-1.473q1.838,0,2.911,1.265V6.088h1.789V21.024h-1.644l-.087-1.128q-1.073,1.323-2.989,1.324-1.819,0-2.966-1.5t-1.147-3.911Zm1.79.2q0,1.79.735,2.8t2.032,1.011q1.7,0,2.486-1.538V13.323q-.8-1.488-2.466-1.488-1.316,0-2.051,1.021T127.127,15.881Z" transform="translate(886.79 326.884)" fill="#707070"/>
    <path id="Sorry..." d="M5.853,14.691Q3.436,14,2.335,12.984t-1.1-2.5Q1.234,8.8,2.58,7.7t3.5-1.1q1.467,0,2.617.568t1.78,1.565q.631,1,.631,2.181H9.218q0-1.3-.822-2.037T6.078,8.138q-1.389,0-2.167.612t-.778,1.7q0,.872.739,1.475t2.515,1.1q1.776.5,2.778,1.1t1.486,1.4q.484.8.484,1.887,0,1.731-1.349,2.773T6.176,21.235q-1.468,0-2.74-.561t-1.963-1.54q-.69-.978-.69-2.221H2.673q0,1.291.954,2.04t2.549.747q1.487,0,2.279-.607t.792-1.653q0-1.046-.734-1.618T5.853,14.691Zm6.924.957q0-1.555.611-2.8t1.7-1.916q1.09-.674,2.487-.674,2.159,0,3.492,1.5T22.4,15.735v.127q0,1.544-.591,2.77T20.12,20.543q-1.1.685-2.525.685-2.15,0-3.484-1.494t-1.334-3.959Zm1.818.215q0,1.76.816,2.825T17.6,19.753q1.377,0,2.188-1.081t.811-3.025q0-1.739-.825-2.819t-2.193-1.08q-1.339,0-2.159,1.065T14.6,15.863Zm15.173-3.782q-.41-.068-.888-.068-1.776,0-2.41,1.514v7.5H24.665V10.459h1.757l.029,1.221q.888-1.416,2.517-1.416.527,0,.8.137Zm6.756,0q-.409-.068-.887-.068-1.774,0-2.408,1.513v7.5h-1.8V10.46h1.755l.029,1.221q.887-1.416,2.515-1.415.526,0,.8.137Zm5.1,6.295,2.454-7.914H46.01L41.775,22.65q-.984,2.636-3.127,2.637l-.341-.029-.672-.126V23.668l.487.039q.916,0,1.427-.372t.843-1.357l.4-1.074-3.76-10.443H39Zm6.026,1.7q0-.468.277-.781t.832-.312q.555,0,.842.312t.287.78q0,.449-.287.751t-.842.3q-.555,0-.832-.3T47.655,20.071Zm5.243,0q0-.468.277-.78t.831-.312q.554,0,.841.312t.287.78q0,.449-.287.751t-.841.3q-.554,0-.831-.3T52.9,20.069Zm5.24,0q0-.468.277-.78t.831-.312q.554,0,.84.312t.287.78q0,.448-.287.751t-.84.3q-.554,0-.831-.3T58.138,20.067Z" transform="translate(886.98 303.916)" fill="#707070"/>
  </g>
</svg>
