<svg xmlns="http://www.w3.org/2000/svg" width="461.203" height="378.99" viewBox="0 0 461.203 378.99" style="">
  <g id="Group_23" data-name="Group 23" transform="translate(-3302 2658)">
    <g id="Isolation_Mode" data-name="Isolation Mode" transform="translate(3286.955 -2660.37)">
      <path id="Path_428" data-name="Path 428" d="M402.88,328,51.67,381.2a13.55,13.55,0,0,1-15.59-12.47l-21-316.3A14.41,14.41,0,0,1,30.47,37.05L382.3,59.5A13.58,13.58,0,0,1,395,71.76l20.16,240.86A14.67,14.67,0,0,1,402.88,328Z" fill="#63737a" class="EJkmaAKt_0"></path>
      <path id="Path_429" data-name="Path 429" d="M412.44,327.58,59.56,381A13.55,13.55,0,0,1,44,368.52L22.78,50.77A14.62,14.62,0,0,1,38.37,35.18L391.65,57.63A13.6,13.6,0,0,1,404.33,70.1L424.7,312A14.16,14.16,0,0,1,412.44,327.58Z" fill="#fff" class="EJkmaAKt_1"></path>
      <path id="Path_430" data-name="Path 430" d="M182.38,218.69l-99.33,5.4a5.78,5.78,0,0,1-6-5.4l-5.82-84a5.91,5.91,0,0,1,5.77-6.2l99.34.63a5.73,5.73,0,0,1,5.82,5.4L188,212.45a5.86,5.86,0,0,1-5.62,6.24Z" fill="#6dafa7" class="EJkmaAKt_2"></path>
      <path id="Path_431" data-name="Path 431" d="M289.2,186.27l-83.13,2.91a5.78,5.78,0,0,1-6-5.41l-3.54-48.42a5.91,5.91,0,0,1,5.82-6.23l83.13.62a6,6,0,0,1,5.82,5.4L294.81,180a5.74,5.74,0,0,1-5.61,6.27Z" fill="#ffe779" class="EJkmaAKt_3"></path>
      <path id="Path_432" data-name="Path 432" d="M383.34,183.15l-70,2.49a5.77,5.77,0,0,1-6-5.4l-3.53-43.85a5.9,5.9,0,0,1,5.82-6.23l70,.41a6,6,0,0,1,5.82,5.41l3.32,40.93a5.68,5.68,0,0,1-5.43,6.24Z" fill="#f4c2c9" class="EJkmaAKt_4"></path>
      <path id="Path_433" data-name="Path 433" d="M188.62,300.15,89.28,311a5.76,5.76,0,0,1-6.44-5.41L79.1,251.31a6,6,0,0,1,5.4-6.23l99.55-6.65a5.82,5.82,0,0,1,6.23,5.4L194,293.92a6.28,6.28,0,0,1-5.38,6.23Z" fill="none" stroke="#63737a" stroke-linecap="round" stroke-linejoin="round" stroke-width="3.74" class="EJkmaAKt_5"></path>
      <path id="Path_434" data-name="Path 434" d="M298.55,298.07l-82.92,9.77a5.76,5.76,0,0,1-6.44-5.4l-6.65-89.57a5.84,5.84,0,0,1,5.4-6.24l83.13-3.95a5.78,5.78,0,0,1,6,5.41l6.65,83.75A5.92,5.92,0,0,1,298.55,298.07Z" fill="#f4c2c9" class="EJkmaAKt_6"></path>
      <path id="Path_435" data-name="Path 435" d="M281.3,218.27l-59.64,3.53a2.31,2.31,0,0,0-2.29,2.7l2.71,37a2.39,2.39,0,0,0,2.7,2.28l59.64-5.19a2.41,2.41,0,0,0,2.29-2.7L284,220.56a2.89,2.89,0,0,0-2.7-2.29Z" fill="#6dafa7" class="EJkmaAKt_7"></path>
      <path id="Path_436" data-name="Path 436" d="M391.65,277.5l-70,7.69a5.75,5.75,0,0,1-6.44-5.41l-5.61-72.11a5.83,5.83,0,0,1,5.4-6.23l70-3.33a5.78,5.78,0,0,1,6,5.41l5.61,67.74a5.62,5.62,0,0,1-4.96,6.24Z" fill="#ffe779" class="EJkmaAKt_8"></path>
      <path id="Line_47" data-name="Line 47" transform="translate(137.91 265.86)" fill="none" stroke="#63737a" stroke-linecap="round" stroke-linejoin="round" stroke-width="3.74" d="M0,0L1.25,15.38" class="EJkmaAKt_9"></path>
      <path id="Line_48" data-name="Line 48" transform="translate(131.26 272.93)" fill="none" stroke="#63737a" stroke-linecap="round" stroke-linejoin="round" stroke-width="3.74" d="M0,1.24L14.55,0" class="EJkmaAKt_10"></path>
      <path id="Path_437" data-name="Path 437" d="M237.45,282.9c-.41-4.16-3.53-7.48-7.27-7.06s-6.65,4.15-6.23,8.52,3.74,7.48,7.48,7.06C235,290.8,237.66,287.06,237.45,282.9Z" fill="#282828" class="EJkmaAKt_11"></path>
      <path id="Line_49" data-name="Line 49" transform="translate(249.51 277.71)" fill="none" stroke="#282828" stroke-linecap="round" stroke-linejoin="round" stroke-width="3.74" d="M0,3.94L38.86,0" class="EJkmaAKt_12"></path>
      <path id="Path_438" data-name="Path 438" d="M336,221c-.42-3.95-3.12-6.86-6.44-6.86-3.33.21-5.61,3.54-5.41,7.49.42,3.94,3.12,7.06,6.45,6.85C334.09,228.25,336.37,224.92,336,221Z" fill="#6dafa7" class="EJkmaAKt_13"></path>
      <path id="Line_50" data-name="Line 50" transform="translate(346.56 218.27)" fill="none" stroke="#282828" stroke-linecap="round" stroke-linejoin="round" stroke-width="3.74" d="M0,2.08L33.46,0" class="EJkmaAKt_14"></path>
      <path id="Path_439" data-name="Path 439" d="M337.83,243.21c-.42-4-3.12-6.86-6.44-6.65s-5.61,3.74-5.41,7.69c.42,3.95,3.33,7.06,6.45,6.65C335.75,250.48,338.25,247.16,337.83,243.21Z" fill="#6dafa7" class="EJkmaAKt_15"></path>
      <path id="Line_51" data-name="Line 51" transform="translate(348.22 239.68)" fill="none" stroke="#282828" stroke-linecap="round" stroke-linejoin="round" stroke-width="3.74" d="M0,2.7L33.67,0" class="EJkmaAKt_16"></path>
      <path id="Path_440" data-name="Path 440" d="M339.7,265.44c-.42-3.94-3.12-6.85-6.44-6.65s-5.61,3.75-5.41,7.69c.42,3.95,3.33,6.86,6.45,6.65C337.62,272.72,339.91,269.39,339.7,265.44Z" fill="#6dafa7" class="EJkmaAKt_17"></path>
      <path id="Line_52" data-name="Line 52" transform="translate(350.09 261.08)" fill="none" stroke="#282828" stroke-linecap="round" stroke-linejoin="round" stroke-width="3.74" d="M0,3.33L33.46,0" class="EJkmaAKt_18"></path>
      <path id="Path_441" data-name="Path 441" d="M105.91,162.16l-13.51.21a2.66,2.66,0,0,1-2.5-2.29l-1-14.13a2.39,2.39,0,0,1,2.49-2.49H104.9a2.66,2.66,0,0,1,2.49,2.28l1,13.93a2.87,2.87,0,0,1-2.48,2.49Z" fill="#ffe779" class="EJkmaAKt_19"></path>
      <path id="Line_53" data-name="Line 53" transform="translate(120.45 143.25)" fill="none" stroke="#282828" stroke-linecap="round" stroke-linejoin="round" stroke-width="3.74" d="M0,0.21L46.76,0" class="EJkmaAKt_20"></path>
      <path id="Line_54" data-name="Line 54" transform="translate(121.29 155.09)" fill="none" stroke="#282828" stroke-linecap="round" stroke-linejoin="round" stroke-width="3.74" d="M0,0.42L46.75,0" class="EJkmaAKt_21"></path>
      <path id="Path_442" data-name="Path 442" d="M330.14,158.83l-10.6.21a1.77,1.77,0,0,1-1.45-1.24l-1-13.51a1.42,1.42,0,0,1,1.45-1.46h10.6a1.81,1.81,0,0,1,1.46,1.25l1,13.3A1.56,1.56,0,0,1,330.14,158.83Z" fill="#282828" class="EJkmaAKt_22"></path>
      <path id="Line_55" data-name="Line 55" transform="translate(340.12 142.63)" fill="none" stroke="#282828" stroke-linecap="round" stroke-linejoin="round" stroke-width="3.74" d="M0,0L34.7,0" class="EJkmaAKt_23"></path>
      <path id="Line_56" data-name="Line 56" transform="translate(341.15 152.81)" fill="none" stroke="#282828" stroke-linecap="round" stroke-linejoin="round" stroke-width="3.74" d="M0,0.41L34.5,0" class="EJkmaAKt_24"></path>
      <path id="Line_57" data-name="Line 57" transform="translate(319.13 169.02)" fill="none" stroke="#282828" stroke-linecap="round" stroke-linejoin="round" stroke-width="3.74" d="M0,1.45L57.77,0" class="EJkmaAKt_25"></path>
      <path id="Path_443" data-name="Path 443" d="M108.19,194.37l-13.51.42a2.5,2.5,0,0,1-2.49-2.29l-1-14.13a2.35,2.35,0,0,1,2.29-2.49l13.51-.42a2.66,2.66,0,0,1,2.49,2.29l1,13.92a2.56,2.56,0,0,1-2.29,2.7Z" fill="#ffe779" class="EJkmaAKt_26"></path>
      <path id="Line_58" data-name="Line 58" transform="translate(122.74 174.01)" fill="none" stroke="#282828" stroke-linecap="round" stroke-linejoin="round" stroke-width="3.74" d="M0,1.24L46.76,0" class="EJkmaAKt_27"></path>
      <path id="Line_59" data-name="Line 59" transform="translate(123.57 186.06)" fill="none" stroke="#282828" stroke-linecap="round" stroke-linejoin="round" stroke-width="3.74" d="M0,1.45L46.76,0" class="EJkmaAKt_28"></path>
      <path id="Path_444" data-name="Path 444" d="M142.27,93.79l-70-2.08a4.49,4.49,0,0,1-4.36-4.16l-.83-11a4.41,4.41,0,0,1,4.57-4.78l70,2.91A4.5,4.5,0,0,1,146,78.83L146.85,89a4.54,4.54,0,0,1-4.58,4.79Z" fill="#6dafa7" class="EJkmaAKt_29"></path>
      <path id="Line_60" data-name="Line 60" transform="translate(213.14 142.83)" fill="none" stroke="#282828" stroke-linecap="round" stroke-linejoin="round" stroke-width="3.74" d="M0,0.21L66.09,0" class="EJkmaAKt_30"></path>
      <path id="Line_61" data-name="Line 61" transform="translate(213.97 153.85)" fill="none" stroke="#282828" stroke-linecap="round" stroke-linejoin="round" stroke-width="3.74" d="M0,0.83L66.09,0" class="EJkmaAKt_31"></path>
      <path id="Line_62" data-name="Line 62" transform="translate(215.22 172.14)" fill="none" stroke="#282828" stroke-linecap="round" stroke-linejoin="round" stroke-width="3.74" d="M0,0.83L35.53,0" class="EJkmaAKt_32"></path>
      <path id="Path_445" data-name="Path 445" d="M381.26,92.75c-.2-3.12-2.49-5.82-5.19-6-2.5-.2-4.57,2.5-4.16,5.61.21,3.33,2.5,6,5.2,6C379.6,98.57,381.47,95.87,381.26,92.75Z" fill="#63737a" class="EJkmaAKt_33"></path>
      <path id="Path_446" data-name="Path 446" d="M362.77,92.13c-.21-3.33-2.7-6-5.2-6-2.7-.21-4.57,2.49-4.36,5.82s2.7,6,5.4,6C361.1,97.94,363,95.24,362.77,92.13Z" fill="#63737a" class="EJkmaAKt_34"></path>
      <path id="Path_447" data-name="Path 447" d="M343.65,91.29c-.21-3.32-2.7-6-5.4-6.23s-4.78,2.49-4.58,5.82,2.7,6,5.41,6.23C342,97.32,343.86,94.62,343.65,91.29Z" fill="#63737a" class="EJkmaAKt_35"></path>
      <path id="Path_448" data-name="Path 448" d="M465.64,120l-92.27-1.66a7.07,7.07,0,0,1-7.07-6.65L358,10a5.67,5.67,0,0,1,6-6l92.69,9.77a7.13,7.13,0,0,1,6.44,6.65l8.11,93.31a5.63,5.63,0,0,1-5.6,6.27Z" fill="#f8ab5d" class="EJkmaAKt_36"></path>
      <path id="Path_449" data-name="Path 449" d="M470.62,118.31l-92.27-1.66a7.06,7.06,0,0,1-7.06-6.65L363,8.38a5.67,5.67,0,0,1,6-6l92.69,9.77a7.12,7.12,0,0,1,6.44,6.65l8.1,93.31a5.75,5.75,0,0,1-5.61,6.2Z" fill="#ffe779" class="EJkmaAKt_37"></path>
      <path id="Line_63" data-name="Line 63" transform="translate(403.29 21.26)" fill="none" stroke="#63737a" stroke-linecap="round" stroke-linejoin="round" stroke-width="3.74" d="M0,0L48.84,4.57" class="EJkmaAKt_38"></path>
      <path id="Line_64" data-name="Line 64" transform="translate(404.12 31.24)" fill="none" stroke="#63737a" stroke-linecap="round" stroke-linejoin="round" stroke-width="3.74" d="M0,0L48.84,4.15" class="EJkmaAKt_39"></path>
      <path id="Line_65" data-name="Line 65" transform="translate(405.99 54.1)" fill="none" stroke="#63737a" stroke-linecap="round" stroke-linejoin="round" stroke-width="3.74" d="M0,0L49.05,3.32" class="EJkmaAKt_40"></path>
      <path id="Line_66" data-name="Line 66" transform="translate(406.82 63.86)" fill="none" stroke="#63737a" stroke-linecap="round" stroke-linejoin="round" stroke-width="3.74" d="M0,0L48.84,2.91" class="EJkmaAKt_41"></path>
      <path id="Line_67" data-name="Line 67" transform="translate(408.9 86.93)" fill="none" stroke="#63737a" stroke-linecap="round" stroke-linejoin="round" stroke-width="3.74" d="M0,0L48.84,2.08" class="EJkmaAKt_42"></path>
      <path id="Line_68" data-name="Line 68" transform="translate(409.73 96.7)" fill="none" stroke="#63737a" stroke-linecap="round" stroke-linejoin="round" stroke-width="3.74" d="M0,0L48.84,1.66" class="EJkmaAKt_43"></path>
      <path id="Path_450" data-name="Path 450" d="M386.46,26.87l2.49,3.12,3.54-4.78" fill="none" stroke="#6dafa7" stroke-linecap="round" stroke-linejoin="round" stroke-width="3.74" class="EJkmaAKt_44"></path>
      <path id="Path_451" data-name="Path 451" d="M389.16,60.12l2.49,2.91,3.74-4.78" fill="none" stroke="#6dafa7" stroke-linecap="round" stroke-linejoin="round" stroke-width="3.74" class="EJkmaAKt_45"></path>
      <path id="Path_452" data-name="Path 452" d="M391.86,92.75l2.7,2.91,3.54-4.99" fill="none" stroke="#6dafa7" stroke-linecap="round" stroke-linejoin="round" stroke-width="3.74" class="EJkmaAKt_46"></path>
    </g>
  </g>
<style data-made-with="vivus-instant">.EJkmaAKt_0{stroke-dasharray:1355 1357;stroke-dashoffset:1356;animation:EJkmaAKt_draw_0 8200ms linear 0ms infinite,EJkmaAKt_fade 8200ms linear 0ms infinite;}.EJkmaAKt_1{stroke-dasharray:1361 1363;stroke-dashoffset:1362;animation:EJkmaAKt_draw_1 8200ms linear 0ms infinite,EJkmaAKt_fade 8200ms linear 0ms infinite;}.EJkmaAKt_2{stroke-dasharray:398 400;stroke-dashoffset:399;animation:EJkmaAKt_draw_2 8200ms linear 0ms infinite,EJkmaAKt_fade 8200ms linear 0ms infinite;}.EJkmaAKt_3{stroke-dasharray:297 299;stroke-dashoffset:298;animation:EJkmaAKt_draw_3 8200ms linear 0ms infinite,EJkmaAKt_fade 8200ms linear 0ms infinite;}.EJkmaAKt_4{stroke-dasharray:262 264;stroke-dashoffset:263;animation:EJkmaAKt_draw_4 8200ms linear 0ms infinite,EJkmaAKt_fade 8200ms linear 0ms infinite;}.EJkmaAKt_5{stroke-dasharray:341 343;stroke-dashoffset:342;animation:EJkmaAKt_draw_5 8200ms linear 0ms infinite,EJkmaAKt_fade 8200ms linear 0ms infinite;}.EJkmaAKt_6{stroke-dasharray:377 379;stroke-dashoffset:378;animation:EJkmaAKt_draw_6 8200ms linear 0ms infinite,EJkmaAKt_fade 8200ms linear 0ms infinite;}.EJkmaAKt_7{stroke-dasharray:208 210;stroke-dashoffset:209;animation:EJkmaAKt_draw_7 8200ms linear 0ms infinite,EJkmaAKt_fade 8200ms linear 0ms infinite;}.EJkmaAKt_8{stroke-dasharray:318 320;stroke-dashoffset:319;animation:EJkmaAKt_draw_8 8200ms linear 0ms infinite,EJkmaAKt_fade 8200ms linear 0ms infinite;}.EJkmaAKt_9{stroke-dasharray:16 18;stroke-dashoffset:17;animation:EJkmaAKt_draw_9 8200ms linear 0ms infinite,EJkmaAKt_fade 8200ms linear 0ms infinite;}.EJkmaAKt_10{stroke-dasharray:15 17;stroke-dashoffset:16;animation:EJkmaAKt_draw_10 8200ms linear 0ms infinite,EJkmaAKt_fade 8200ms linear 0ms infinite;}.EJkmaAKt_11{stroke-dasharray:46 48;stroke-dashoffset:47;animation:EJkmaAKt_draw_11 8200ms linear 0ms infinite,EJkmaAKt_fade 8200ms linear 0ms infinite;}.EJkmaAKt_12{stroke-dasharray:40 42;stroke-dashoffset:41;animation:EJkmaAKt_draw_12 8200ms linear 0ms infinite,EJkmaAKt_fade 8200ms linear 0ms infinite;}.EJkmaAKt_13{stroke-dasharray:42 44;stroke-dashoffset:43;animation:EJkmaAKt_draw_13 8200ms linear 0ms infinite,EJkmaAKt_fade 8200ms linear 0ms infinite;}.EJkmaAKt_14{stroke-dasharray:34 36;stroke-dashoffset:35;animation:EJkmaAKt_draw_14 8200ms linear 0ms infinite,EJkmaAKt_fade 8200ms linear 0ms infinite;}.EJkmaAKt_15{stroke-dasharray:42 44;stroke-dashoffset:43;animation:EJkmaAKt_draw_15 8200ms linear 0ms infinite,EJkmaAKt_fade 8200ms linear 0ms infinite;}.EJkmaAKt_16{stroke-dasharray:34 36;stroke-dashoffset:35;animation:EJkmaAKt_draw_16 8200ms linear 0ms infinite,EJkmaAKt_fade 8200ms linear 0ms infinite;}.EJkmaAKt_17{stroke-dasharray:42 44;stroke-dashoffset:43;animation:EJkmaAKt_draw_17 8200ms linear 0ms infinite,EJkmaAKt_fade 8200ms linear 0ms infinite;}.EJkmaAKt_18{stroke-dasharray:34 36;stroke-dashoffset:35;animation:EJkmaAKt_draw_18 8200ms linear 0ms infinite,EJkmaAKt_fade 8200ms linear 0ms infinite;}.EJkmaAKt_19{stroke-dasharray:71 73;stroke-dashoffset:72;animation:EJkmaAKt_draw_19 8200ms linear 0ms infinite,EJkmaAKt_fade 8200ms linear 0ms infinite;}.EJkmaAKt_20{stroke-dasharray:47 49;stroke-dashoffset:48;animation:EJkmaAKt_draw_20 8200ms linear 0ms infinite,EJkmaAKt_fade 8200ms linear 0ms infinite;}.EJkmaAKt_21{stroke-dasharray:47 49;stroke-dashoffset:48;animation:EJkmaAKt_draw_21 8200ms linear 0ms infinite,EJkmaAKt_fade 8200ms linear 0ms infinite;}.EJkmaAKt_22{stroke-dasharray:57 59;stroke-dashoffset:58;animation:EJkmaAKt_draw_22 8200ms linear 0ms infinite,EJkmaAKt_fade 8200ms linear 0ms infinite;}.EJkmaAKt_23{stroke-dasharray:35 37;stroke-dashoffset:36;animation:EJkmaAKt_draw_23 8200ms linear 0ms infinite,EJkmaAKt_fade 8200ms linear 0ms infinite;}.EJkmaAKt_24{stroke-dasharray:35 37;stroke-dashoffset:36;animation:EJkmaAKt_draw_24 8200ms linear 0ms infinite,EJkmaAKt_fade 8200ms linear 0ms infinite;}.EJkmaAKt_25{stroke-dasharray:58 60;stroke-dashoffset:59;animation:EJkmaAKt_draw_25 8200ms linear 0ms infinite,EJkmaAKt_fade 8200ms linear 0ms infinite;}.EJkmaAKt_26{stroke-dasharray:71 73;stroke-dashoffset:72;animation:EJkmaAKt_draw_26 8200ms linear 0ms infinite,EJkmaAKt_fade 8200ms linear 0ms infinite;}.EJkmaAKt_27{stroke-dasharray:47 49;stroke-dashoffset:48;animation:EJkmaAKt_draw_27 8200ms linear 0ms infinite,EJkmaAKt_fade 8200ms linear 0ms infinite;}.EJkmaAKt_28{stroke-dasharray:47 49;stroke-dashoffset:48;animation:EJkmaAKt_draw_28 8200ms linear 0ms infinite,EJkmaAKt_fade 8200ms linear 0ms infinite;}.EJkmaAKt_29{stroke-dasharray:190 192;stroke-dashoffset:191;animation:EJkmaAKt_draw_29 8200ms linear 0ms infinite,EJkmaAKt_fade 8200ms linear 0ms infinite;}.EJkmaAKt_30{stroke-dasharray:67 69;stroke-dashoffset:68;animation:EJkmaAKt_draw_30 8200ms linear 0ms infinite,EJkmaAKt_fade 8200ms linear 0ms infinite;}.EJkmaAKt_31{stroke-dasharray:67 69;stroke-dashoffset:68;animation:EJkmaAKt_draw_31 8200ms linear 0ms infinite,EJkmaAKt_fade 8200ms linear 0ms infinite;}.EJkmaAKt_32{stroke-dasharray:36 38;stroke-dashoffset:37;animation:EJkmaAKt_draw_32 8200ms linear 0ms infinite,EJkmaAKt_fade 8200ms linear 0ms infinite;}.EJkmaAKt_33{stroke-dasharray:34 36;stroke-dashoffset:35;animation:EJkmaAKt_draw_33 8200ms linear 0ms infinite,EJkmaAKt_fade 8200ms linear 0ms infinite;}.EJkmaAKt_34{stroke-dasharray:34 36;stroke-dashoffset:35;animation:EJkmaAKt_draw_34 8200ms linear 0ms infinite,EJkmaAKt_fade 8200ms linear 0ms infinite;}.EJkmaAKt_35{stroke-dasharray:35 37;stroke-dashoffset:36;animation:EJkmaAKt_draw_35 8200ms linear 0ms infinite,EJkmaAKt_fade 8200ms linear 0ms infinite;}.EJkmaAKt_36{stroke-dasharray:422 424;stroke-dashoffset:423;animation:EJkmaAKt_draw_36 8200ms linear 0ms infinite,EJkmaAKt_fade 8200ms linear 0ms infinite;}.EJkmaAKt_37{stroke-dasharray:421 423;stroke-dashoffset:422;animation:EJkmaAKt_draw_37 8200ms linear 0ms infinite,EJkmaAKt_fade 8200ms linear 0ms infinite;}.EJkmaAKt_38{stroke-dasharray:50 52;stroke-dashoffset:51;animation:EJkmaAKt_draw_38 8200ms linear 0ms infinite,EJkmaAKt_fade 8200ms linear 0ms infinite;}.EJkmaAKt_39{stroke-dasharray:50 52;stroke-dashoffset:51;animation:EJkmaAKt_draw_39 8200ms linear 0ms infinite,EJkmaAKt_fade 8200ms linear 0ms infinite;}.EJkmaAKt_40{stroke-dasharray:50 52;stroke-dashoffset:51;animation:EJkmaAKt_draw_40 8200ms linear 0ms infinite,EJkmaAKt_fade 8200ms linear 0ms infinite;}.EJkmaAKt_41{stroke-dasharray:49 51;stroke-dashoffset:50;animation:EJkmaAKt_draw_41 8200ms linear 0ms infinite,EJkmaAKt_fade 8200ms linear 0ms infinite;}.EJkmaAKt_42{stroke-dasharray:49 51;stroke-dashoffset:50;animation:EJkmaAKt_draw_42 8200ms linear 0ms infinite,EJkmaAKt_fade 8200ms linear 0ms infinite;}.EJkmaAKt_43{stroke-dasharray:49 51;stroke-dashoffset:50;animation:EJkmaAKt_draw_43 8200ms linear 0ms infinite,EJkmaAKt_fade 8200ms linear 0ms infinite;}.EJkmaAKt_44{stroke-dasharray:10 12;stroke-dashoffset:11;animation:EJkmaAKt_draw_44 8200ms linear 0ms infinite,EJkmaAKt_fade 8200ms linear 0ms infinite;}.EJkmaAKt_45{stroke-dasharray:10 12;stroke-dashoffset:11;animation:EJkmaAKt_draw_45 8200ms linear 0ms infinite,EJkmaAKt_fade 8200ms linear 0ms infinite;}.EJkmaAKt_46{stroke-dasharray:11 13;stroke-dashoffset:12;animation:EJkmaAKt_draw_46 8200ms linear 0ms infinite,EJkmaAKt_fade 8200ms linear 0ms infinite;}@keyframes EJkmaAKt_draw{100%{stroke-dashoffset:0;}}@keyframes EJkmaAKt_fade{0%{stroke-opacity:1;}95.1219512195122%{stroke-opacity:1;}100%{stroke-opacity:0;}}@keyframes EJkmaAKt_draw_0{9.75609756097561%{stroke-dashoffset: 1356}42.27642276422765%{ stroke-dashoffset: 0;}100%{ stroke-dashoffset: 0;}}@keyframes EJkmaAKt_draw_1{10.109579356663131%{stroke-dashoffset: 1362}42.62990455991517%{ stroke-dashoffset: 0;}100%{ stroke-dashoffset: 0;}}@keyframes EJkmaAKt_draw_2{10.463061152350654%{stroke-dashoffset: 399}42.98338635560269%{ stroke-dashoffset: 0;}100%{ stroke-dashoffset: 0;}}@keyframes EJkmaAKt_draw_3{10.816542948038176%{stroke-dashoffset: 298}43.33686815129021%{ stroke-dashoffset: 0;}100%{ stroke-dashoffset: 0;}}@keyframes EJkmaAKt_draw_4{11.170024743725698%{stroke-dashoffset: 263}43.69034994697773%{ stroke-dashoffset: 0;}100%{ stroke-dashoffset: 0;}}@keyframes EJkmaAKt_draw_5{11.52350653941322%{stroke-dashoffset: 342}44.043831742665255%{ stroke-dashoffset: 0;}100%{ stroke-dashoffset: 0;}}@keyframes EJkmaAKt_draw_6{11.876988335100743%{stroke-dashoffset: 378}44.397313538352776%{ stroke-dashoffset: 0;}100%{ stroke-dashoffset: 0;}}@keyframes EJkmaAKt_draw_7{12.230470130788264%{stroke-dashoffset: 209}44.7507953340403%{ stroke-dashoffset: 0;}100%{ stroke-dashoffset: 0;}}@keyframes EJkmaAKt_draw_8{12.583951926475786%{stroke-dashoffset: 319}45.10427712972782%{ stroke-dashoffset: 0;}100%{ stroke-dashoffset: 0;}}@keyframes EJkmaAKt_draw_9{12.937433722163307%{stroke-dashoffset: 17}45.45775892541534%{ stroke-dashoffset: 0;}100%{ stroke-dashoffset: 0;}}@keyframes EJkmaAKt_draw_10{13.290915517850829%{stroke-dashoffset: 16}45.81124072110286%{ stroke-dashoffset: 0;}100%{ stroke-dashoffset: 0;}}@keyframes EJkmaAKt_draw_11{13.644397313538354%{stroke-dashoffset: 47}46.16472251679039%{ stroke-dashoffset: 0;}100%{ stroke-dashoffset: 0;}}@keyframes EJkmaAKt_draw_12{13.997879109225874%{stroke-dashoffset: 41}46.51820431247791%{ stroke-dashoffset: 0;}100%{ stroke-dashoffset: 0;}}@keyframes EJkmaAKt_draw_13{14.351360904913395%{stroke-dashoffset: 43}46.871686108165434%{ stroke-dashoffset: 0;}100%{ stroke-dashoffset: 0;}}@keyframes EJkmaAKt_draw_14{14.704842700600917%{stroke-dashoffset: 35}47.22516790385295%{ stroke-dashoffset: 0;}100%{ stroke-dashoffset: 0;}}@keyframes EJkmaAKt_draw_15{15.058324496288439%{stroke-dashoffset: 43}47.57864969954048%{ stroke-dashoffset: 0;}100%{ stroke-dashoffset: 0;}}@keyframes EJkmaAKt_draw_16{15.411806291975964%{stroke-dashoffset: 35}47.932131495228%{ stroke-dashoffset: 0;}100%{ stroke-dashoffset: 0;}}@keyframes EJkmaAKt_draw_17{15.765288087663484%{stroke-dashoffset: 43}48.28561329091553%{ stroke-dashoffset: 0;}100%{ stroke-dashoffset: 0;}}@keyframes EJkmaAKt_draw_18{16.118769883351007%{stroke-dashoffset: 35}48.63909508660304%{ stroke-dashoffset: 0;}100%{ stroke-dashoffset: 0;}}@keyframes EJkmaAKt_draw_19{16.47225167903853%{stroke-dashoffset: 72}48.992576882290564%{ stroke-dashoffset: 0;}100%{ stroke-dashoffset: 0;}}@keyframes EJkmaAKt_draw_20{16.82573347472605%{stroke-dashoffset: 48}49.346058677978085%{ stroke-dashoffset: 0;}100%{ stroke-dashoffset: 0;}}@keyframes EJkmaAKt_draw_21{17.17921527041357%{stroke-dashoffset: 48}49.69954047366561%{ stroke-dashoffset: 0;}100%{ stroke-dashoffset: 0;}}@keyframes EJkmaAKt_draw_22{17.532697066101093%{stroke-dashoffset: 58}50.05302226935313%{ stroke-dashoffset: 0;}100%{ stroke-dashoffset: 0;}}@keyframes EJkmaAKt_draw_23{17.886178861788615%{stroke-dashoffset: 36}50.40650406504066%{ stroke-dashoffset: 0;}100%{ stroke-dashoffset: 0;}}@keyframes EJkmaAKt_draw_24{18.23966065747614%{stroke-dashoffset: 36}50.75998586072817%{ stroke-dashoffset: 0;}100%{ stroke-dashoffset: 0;}}@keyframes EJkmaAKt_draw_25{18.59314245316366%{stroke-dashoffset: 59}51.11346765641569%{ stroke-dashoffset: 0;}100%{ stroke-dashoffset: 0;}}@keyframes EJkmaAKt_draw_26{18.946624248851183%{stroke-dashoffset: 72}51.466949452103215%{ stroke-dashoffset: 0;}100%{ stroke-dashoffset: 0;}}@keyframes EJkmaAKt_draw_27{19.300106044538705%{stroke-dashoffset: 48}51.820431247790744%{ stroke-dashoffset: 0;}100%{ stroke-dashoffset: 0;}}@keyframes EJkmaAKt_draw_28{19.653587840226226%{stroke-dashoffset: 48}52.17391304347827%{ stroke-dashoffset: 0;}100%{ stroke-dashoffset: 0;}}@keyframes EJkmaAKt_draw_29{20.007069635913748%{stroke-dashoffset: 191}52.52739483916577%{ stroke-dashoffset: 0;}100%{ stroke-dashoffset: 0;}}@keyframes EJkmaAKt_draw_30{20.36055143160127%{stroke-dashoffset: 68}52.8808766348533%{ stroke-dashoffset: 0;}100%{ stroke-dashoffset: 0;}}@keyframes EJkmaAKt_draw_31{20.71403322728879%{stroke-dashoffset: 68}53.23435843054083%{ stroke-dashoffset: 0;}100%{ stroke-dashoffset: 0;}}@keyframes EJkmaAKt_draw_32{21.067515022976316%{stroke-dashoffset: 37}53.58784022622836%{ stroke-dashoffset: 0;}100%{ stroke-dashoffset: 0;}}@keyframes EJkmaAKt_draw_33{21.420996818663834%{stroke-dashoffset: 35}53.94132202191588%{ stroke-dashoffset: 0;}100%{ stroke-dashoffset: 0;}}@keyframes EJkmaAKt_draw_34{21.77447861435136%{stroke-dashoffset: 35}54.29480381760339%{ stroke-dashoffset: 0;}100%{ stroke-dashoffset: 0;}}@keyframes EJkmaAKt_draw_35{22.12796041003888%{stroke-dashoffset: 36}54.648285613290916%{ stroke-dashoffset: 0;}100%{ stroke-dashoffset: 0;}}@keyframes EJkmaAKt_draw_36{22.481442205726403%{stroke-dashoffset: 423}55.00176740897844%{ stroke-dashoffset: 0;}100%{ stroke-dashoffset: 0;}}@keyframes EJkmaAKt_draw_37{22.834924001413928%{stroke-dashoffset: 422}55.35524920466597%{ stroke-dashoffset: 0;}100%{ stroke-dashoffset: 0;}}@keyframes EJkmaAKt_draw_38{23.18840579710145%{stroke-dashoffset: 51}55.70873100035348%{ stroke-dashoffset: 0;}100%{ stroke-dashoffset: 0;}}@keyframes EJkmaAKt_draw_39{23.54188759278897%{stroke-dashoffset: 51}56.062212796041%{ stroke-dashoffset: 0;}100%{ stroke-dashoffset: 0;}}@keyframes EJkmaAKt_draw_40{23.895369388476492%{stroke-dashoffset: 51}56.415694591728524%{ stroke-dashoffset: 0;}100%{ stroke-dashoffset: 0;}}@keyframes EJkmaAKt_draw_41{24.248851184164018%{stroke-dashoffset: 50}56.76917638741605%{ stroke-dashoffset: 0;}100%{ stroke-dashoffset: 0;}}@keyframes EJkmaAKt_draw_42{24.60233297985154%{stroke-dashoffset: 50}57.12265818310357%{ stroke-dashoffset: 0;}100%{ stroke-dashoffset: 0;}}@keyframes EJkmaAKt_draw_43{24.95581477553906%{stroke-dashoffset: 50}57.476139978791096%{ stroke-dashoffset: 0;}100%{ stroke-dashoffset: 0;}}@keyframes EJkmaAKt_draw_44{25.309296571226582%{stroke-dashoffset: 11}57.82962177447861%{ stroke-dashoffset: 0;}100%{ stroke-dashoffset: 0;}}@keyframes EJkmaAKt_draw_45{25.6627783669141%{stroke-dashoffset: 11}58.18310357016615%{ stroke-dashoffset: 0;}100%{ stroke-dashoffset: 0;}}@keyframes EJkmaAKt_draw_46{26.016260162601622%{stroke-dashoffset: 12}58.536585365853654%{ stroke-dashoffset: 0;}100%{ stroke-dashoffset: 0;}}</style></svg>
