<svg xmlns="http://www.w3.org/2000/svg" width="266" height="84" viewBox="0 0 266 84">
  <g id="Group_36" data-name="Group 36" transform="translate(-2684 3826)">
    <text id="Profile" transform="translate(2772 -3758)" fill="#707070" font-size="63" font-family="SegoeUI, Segoe UI"><tspan x="0" y="0">Profile</tspan></text>
    <g id="Group_27" data-name="Group 27" transform="translate(2710.627 -2256.636)">
      <g id="Group_33" data-name="Group 33" transform="translate(-26.627 -1556.266)">
        <g id="Rectangle_9" data-name="Rectangle 9" transform="translate(0 31.902)" fill="none" stroke="#707070" stroke-width="5">
          <path d="M18.145,0h8.71A18.145,18.145,0,0,1,45,18.145v0A6.855,6.855,0,0,1,38.145,25H6.855A6.855,6.855,0,0,1,0,18.145v0A18.145,18.145,0,0,1,18.145,0Z" stroke="none"/>
          <path d="M17.412,2.5H27.588A14.912,14.912,0,0,1,42.5,17.412v0A5.088,5.088,0,0,1,37.412,22.5H7.588A5.088,5.088,0,0,1,2.5,17.412v0A14.912,14.912,0,0,1,17.412,2.5Z" fill="none"/>
        </g>
        <g id="Ellipse_1" data-name="Ellipse 1" transform="translate(9 -0.098)" fill="none" stroke="#707070" stroke-width="5">
          <ellipse cx="13.5" cy="13" rx="13.5" ry="13" stroke="none"/>
          <ellipse cx="13.5" cy="13" rx="11" ry="10.5" fill="none"/>
        </g>
      </g>
    </g>
  </g>
</svg>
