<svg xmlns="http://www.w3.org/2000/svg" width="624" height="87.907" viewBox="0 0 624 87.907">
  <g id="Group_32" data-name="Group 32" transform="translate(395.918 -651.173)">
    <path id="Path_57" data-name="Path 57" d="M-358.918,651.173l-37,21.977V717.1l37,21.977,37-21.977V673.15Zm27.824,60.48-27.824,16.526-27.823-16.526V678.6l27.823-16.526,27.824,16.526Z" fill="#5046bb"/>
    <path id="Path_58" data-name="Path 58" d="M-358.82,667.247h-.012l-24.989,15.947v10.736l25-14.865,25,14.865V683.195Z" transform="translate(-0.092 3)" fill="#5046bb"/>
    <line id="Line_6" data-name="Line 6" transform="translate(-359.48 669.291)" fill="#fff"/>
    <text id="SAHABAT_UMRAH" data-name="SAHABAT UMRAH" transform="translate(-305.918 717.173)" fill="#5046bb" font-size="61" font-family="Gadugi-Bold, Gadugi" font-weight="700"><tspan x="0" y="0">SAHABAT UMRAH</tspan></text>
    <path id="Path_937" data-name="Path 937" d="M-358.918,651.173l-37,21.977V717.1l37,21.977,37-21.977V673.15Zm27.824,60.48-27.824,16.526-27.823-16.526V678.6l27.823-16.526,27.824,16.526Z" fill="#5046bb"/>
  </g>
</svg>
